<svg xmlns="http://www.w3.org/2000/svg" width="211.277" height="39.828"><g data-name="LOGO+SINCE_Light"><g data-name="Layer 1"><g fill="#fff"><path data-name="Path 10" d="M59.233 17.973h-8.3l-2.3 5.677H45.76l9.44-22.5h.18l9.44 22.5h-3.349zm-.986-2.507l-3.076-7.888-3.2 7.888z"/><path data-name="Path 11" d="M75.997 10.774a6.015 6.015 0 013.137.836 5.907 5.907 0 012.211 2.345 7.268 7.268 0 01.806 3.481 6.638 6.638 0 01-.866 3.42 5.932 5.932 0 01-2.39 2.285 7.163 7.163 0 01-3.406.807 5.9 5.9 0 01-2.569-.583 5.258 5.258 0 01-1.971-1.568v7.8H68.17V11.072h2.42l.238 2.091a7.444 7.444 0 012.285-1.733 6.427 6.427 0 012.884-.656zm-1.046 10.934a4.413 4.413 0 002.166-.553 4.27 4.27 0 001.6-1.522 4.057 4.057 0 00.6-2.166 4.447 4.447 0 00-.553-2.211 4.113 4.113 0 00-1.508-1.553 4.073 4.073 0 00-2.12-.567 4.24 4.24 0 00-2.7.881 4.156 4.156 0 00-1.478 2.375v2.061a3.709 3.709 0 001.348 2.343 4.056 4.056 0 002.645.912z"/><path data-name="Path 12" d="M93.705 10.774a6.015 6.015 0 013.137.836 5.907 5.907 0 012.211 2.345 7.268 7.268 0 01.806 3.481 6.638 6.638 0 01-.866 3.42 5.932 5.932 0 01-2.39 2.285 7.163 7.163 0 01-3.406.807 5.9 5.9 0 01-2.569-.583 5.258 5.258 0 01-1.971-1.568v7.8h-2.779V11.072h2.42l.238 2.091a7.444 7.444 0 012.29-1.732 6.427 6.427 0 012.879-.657zm-1.046 10.934a4.413 4.413 0 002.166-.553 4.269 4.269 0 001.6-1.522 4.057 4.057 0 00.6-2.166 4.446 4.446 0 00-.553-2.211 4.113 4.113 0 00-1.508-1.553 4.073 4.073 0 00-2.12-.567 4.24 4.24 0 00-2.7.881 4.155 4.155 0 00-1.488 2.374v2.061a3.709 3.709 0 001.359 2.345 4.056 4.056 0 002.644.911z"/><path data-name="Path 13" d="M105.229.946v22.7h-1.4V.946z"/><path data-name="Path 14" d="M111.954 11.969V23.65h-1.4V11.969zm-1.7-4.3a.908.908 0 01.314-.7 1.053 1.053 0 01.732-.284 1 1 0 01.717.284.929.929 0 01.3.7.963.963 0 01-.3.732 1 1 0 01-.717.284 1.028 1.028 0 01-.732-.3.958.958 0 01-.314-.714z"/><path data-name="Path 15" d="M123.967 11.611a5.778 5.778 0 012.988.792 5.834 5.834 0 012.136 2.18 6.188 6.188 0 01.792 3.121 6.456 6.456 0 01-.821 3.317 5.529 5.529 0 01-2.2 2.136 6.376 6.376 0 01-3.047.732 6.173 6.173 0 01-2.972-.747 5.705 5.705 0 01-2.166-1.971v2.48h-1.4V.951h1.4v13.354a5.548 5.548 0 012.2-1.957 6.643 6.643 0 013.09-.737zm-.388 11.053a4.7 4.7 0 003.54-1.373 4.942 4.942 0 001.33-3.586 5.141 5.141 0 00-.613-2.479 4.54 4.54 0 00-1.733-1.793 4.9 4.9 0 00-2.523-.657 4.978 4.978 0 00-3.212 1.09 4.6 4.6 0 00-1.688 2.792v1.823a4.038 4.038 0 00.778 2.061 5.17 5.17 0 001.762 1.539 4.881 4.881 0 002.359.582z"/><path data-name="Path 16" d="M139.177 22.664a5.144 5.144 0 003.4-1.284l.718 1.016a7.089 7.089 0 01-1.957 1.09 6.283 6.283 0 01-2.2.4 6.378 6.378 0 01-3.211-.807 5.775 5.775 0 01-2.211-2.194 6.2 6.2 0 01-.792-3.123 5.988 5.988 0 01.836-3.092 6.24 6.24 0 012.271-2.254 6.1 6.1 0 013.137-.836 5.23 5.23 0 013.464 1.195 6.794 6.794 0 012.091 3.226l-9.978 3.853a4.725 4.725 0 001.748 2.031 4.755 4.755 0 002.684.779zm-.091-9.887a4.65 4.65 0 00-2.419.657 4.713 4.713 0 00-1.733 1.777 5.018 5.018 0 00-.627 2.494 4.619 4.619 0 00.119 1.106l8.6-3.375a4.932 4.932 0 00-1.584-1.927 3.928 3.928 0 00-2.359-.732z"/><path data-name="Path 17" d="M149.951 14.747a4.854 4.854 0 012.061-2.24 5.914 5.914 0 012.868-.867l-.06 1.375a5.1 5.1 0 00-2.419.583 4.481 4.481 0 00-1.748 1.613 4.183 4.183 0 00-.643 2.256v6.184h-1.4V11.969h1.225z"/><path data-name="Path 18" d="M170.051 11.969V23.65h-1.406v-2.48a5.538 5.538 0 01-2.091 1.927 6.1 6.1 0 01-3.046.792 6.1 6.1 0 01-3.032-.761 5.588 5.588 0 01-2.151-2.151 6.309 6.309 0 01-.792-3.181 6.373 6.373 0 01.821-3.3 5.524 5.524 0 012.271-2.136 7.025 7.025 0 013.271-.747 5.18 5.18 0 012.749.807 5.43 5.43 0 012 2.091l.15-2.54zm-6.244 10.725a4.846 4.846 0 003.346-1.225 4.4 4.4 0 001.493-3.137v-1.673a4.746 4.746 0 00-1.732-2.748 4.869 4.869 0 00-3.137-1.105 4.975 4.975 0 00-2.451.612 4.517 4.517 0 00-1.747 1.733 5.1 5.1 0 00-.643 2.585 4.853 4.853 0 00.658 2.479 4.982 4.982 0 001.777 1.808 4.648 4.648 0 002.435.671z"/><path data-name="Path 19" d="M177.97 6.831v5.288h3.614v1.136h-3.614v10.4h-1.434v-10.4h-2.486v-1.136h2.48V6.831z"/><path data-name="Path 20" d="M190.193 22.664a5.144 5.144 0 003.4-1.284l.718 1.016a7.089 7.089 0 01-1.957 1.09 6.283 6.283 0 01-2.2.4 6.378 6.378 0 01-3.211-.807 5.775 5.775 0 01-2.211-2.194 6.2 6.2 0 01-.792-3.123 5.988 5.988 0 01.836-3.092 6.24 6.24 0 012.271-2.254 6.1 6.1 0 013.137-.836 5.23 5.23 0 013.464 1.195 6.794 6.794 0 012.091 3.226l-9.978 3.853a4.725 4.725 0 001.748 2.031 4.756 4.756 0 002.684.779zm-.091-9.887a4.65 4.65 0 00-2.419.657 4.713 4.713 0 00-1.733 1.777 5.018 5.018 0 00-.627 2.494 4.619 4.619 0 00.119 1.106l8.6-3.375a4.932 4.932 0 00-1.584-1.927 3.928 3.928 0 00-2.355-.732z"/><path data-name="Path 21" d="M211.099.946v22.7h-1.434v-2.42a5.879 5.879 0 01-2.21 1.927 6.493 6.493 0 01-3.047.732 5.859 5.859 0 01-3-.792 5.644 5.644 0 01-2.136-2.21 6.457 6.457 0 01-.777-3.152 6.355 6.355 0 01.807-3.226 5.5 5.5 0 012.18-2.151 6.329 6.329 0 013.077-.747 6.233 6.233 0 012.943.747 5.639 5.639 0 012.2 1.971V.946zm-6.333 21.717a4.826 4.826 0 003.375-1.253 4.617 4.617 0 001.524-3.167V16.75a4.733 4.733 0 00-1.718-2.838 4.882 4.882 0 00-3.181-1.135 4.875 4.875 0 00-2.449.627 4.709 4.709 0 00-1.762 1.747 4.951 4.951 0 00-.658 2.554 4.861 4.861 0 00.658 2.48 4.979 4.979 0 001.777 1.807 4.637 4.637 0 002.433.671z"/></g><path data-name="Path 22" d="M.453 35.936l9.8-18.67.065 20.718a2.447 2.447 0 00.649 1.833l-8.157.015c-2.431.001-3.487-1.744-2.357-3.896zm13.018 3.856l20.927-12.167a2.5 2.5 0 001.232-1.381l5.1 9.612c1.136 2.147.087 3.9-2.342 3.9l-24.936.05a.112.112 0 00.019-.014zm.295-6.775l-.068-14.367c-.008-1.609 1.121-2.268 2.518-1.47l12.482 7.128c1.4.8 1.4 2.105.014 2.915l-12.414 7.242c-1.391.811-2.524.163-2.532-1.448zm20.62-9.028l-21-12.037a3.199 3.199 0 00-.272-.14l5.351-10.195c1.127-2.154 2.972-2.155 4.108-.011l11.883 22.427z" fill="#fff" fill-rule="evenodd"/><g fill="#fff"><path data-name="Path 23" d="M48.657 29.79v6.718h-.416V29.79z"/><path data-name="Path 24" d="M53.37 33.051v3.459h-.416v-3.459zm-.5-1.271a.27.27 0 01.092-.208.315.315 0 01.217-.084.3.3 0 01.213.084.276.276 0 01.088.208.287.287 0 01-.088.217.3.3 0 01-.213.083.308.308 0 01-.217-.088.284.284 0 01-.094-.212z"/><path data-name="Path 25" d="M59.65 32.944a1.7 1.7 0 01.884.235 1.726 1.726 0 01.632.645 1.838 1.838 0 01.233.924 1.909 1.909 0 01-.242.981 1.631 1.631 0 01-.65.632 1.891 1.891 0 01-.9.217 1.825 1.825 0 01-.88-.222 1.682 1.682 0 01-.641-.583v.733h-.416v-6.718h.416v3.956a1.636 1.636 0 01.65-.579 1.97 1.97 0 01.914-.221zm-.116 3.271a1.4 1.4 0 001.048-.405 1.461 1.461 0 00.394-1.061 1.522 1.522 0 00-.182-.734 1.332 1.332 0 00-.513-.53 1.442 1.442 0 00-.747-.2 1.471 1.471 0 00-.95.324 1.357 1.357 0 00-.5.826v.539a1.19 1.19 0 00.231.609 1.515 1.515 0 00.525.461 1.442 1.442 0 00.694.172z"/><path data-name="Path 26" d="M66.874 36.217a1.52 1.52 0 001.007-.38l.213.3a2.1 2.1 0 01-.579.323 1.849 1.849 0 01-.65.12 1.9 1.9 0 01-.95-.238 1.705 1.705 0 01-.654-.65 1.829 1.829 0 01-.235-.924 1.773 1.773 0 01.247-.914 1.855 1.855 0 01.672-.668 1.817 1.817 0 01.928-.247 1.555 1.555 0 011.025.353 2.021 2.021 0 01.62.955l-2.953 1.139a1.4 1.4 0 00.516.6 1.412 1.412 0 00.793.231zm-.027-2.927a1.371 1.371 0 00-.715.2 1.4 1.4 0 00-.514.527 1.483 1.483 0 00-.185.738 1.318 1.318 0 00.036.326l2.545-1a1.461 1.461 0 00-.468-.571 1.166 1.166 0 00-.699-.22z"/><path data-name="Path 27" d="M72.788 33.874a1.443 1.443 0 01.611-.663 1.758 1.758 0 01.848-.256l-.017.407a1.514 1.514 0 00-.717.172 1.327 1.327 0 00-.518.478 1.24 1.24 0 00-.19.667v1.83h-.416v-3.457h.363z"/><path data-name="Path 28" d="M81.461 33.052v3.457h-.416v-.734a1.642 1.642 0 01-.618.57 1.8 1.8 0 01-.9.235 1.8 1.8 0 01-.9-.226 1.649 1.649 0 01-.636-.636 1.862 1.862 0 01-.235-.942 1.885 1.885 0 01.244-.977 1.632 1.632 0 01.672-.632 2.088 2.088 0 01.968-.221 1.532 1.532 0 01.814.238 1.611 1.611 0 01.592.62l.045-.752zm-1.847 3.173a1.435 1.435 0 00.991-.362 1.3 1.3 0 00.441-.928v-.495a1.4 1.4 0 00-.513-.814 1.441 1.441 0 00-.928-.328 1.474 1.474 0 00-.726.182 1.313 1.313 0 00-.516.513 1.512 1.512 0 00-.19.764 1.451 1.451 0 00.194.734 1.479 1.479 0 00.527.534 1.375 1.375 0 00.72.2z"/><path data-name="Path 29" d="M86.529 31.532v1.565h1.07v.335h-1.07v3.077h-.425v-3.077h-.734v-.335h.734v-1.565z"/><path data-name="Path 30" d="M91.774 33.051v3.459h-.416v-3.459zm-.5-1.271a.27.27 0 01.092-.208.315.315 0 01.217-.084.3.3 0 01.213.084.276.276 0 01.088.208.287.287 0 01-.088.217.3.3 0 01-.213.083.308.308 0 01-.217-.088.284.284 0 01-.094-.212z"/><path data-name="Path 31" d="M97.925 32.955a1.084 1.084 0 01.779.287 1.048 1.048 0 01.317.747v2.52h-.425v-2.4a.854.854 0 00-.221-.561.792.792 0 00-.584-.226 1.293 1.293 0 00-.649.168 1.3 1.3 0 00-.478.473 1.34 1.34 0 00-.181.694v1.857h-.416v-3.462h.363l.034.77a1.31 1.31 0 01.571-.632 1.723 1.723 0 01.89-.235z"/><path data-name="Path 32" d="M106.739 33.052v3.51a1.592 1.592 0 01-.464 1.172 1.923 1.923 0 01-1.41.464 2.072 2.072 0 01-.831-.164 2.671 2.671 0 01-.778-.543l.247-.283a2.276 2.276 0 00.681.482 1.691 1.691 0 00.663.136 1.519 1.519 0 001.105-.344 1.313 1.313 0 00.362-.928l.009-.814a1.677 1.677 0 01-.65.609 1.862 1.862 0 01-.914.231 1.715 1.715 0 01-.889-.238 1.777 1.777 0 01-.641-.655 1.807 1.807 0 01-.238-.919 1.806 1.806 0 01.247-.937 1.757 1.757 0 01.672-.649 1.9 1.9 0 01.937-.235 1.787 1.787 0 01.866.226 1.5 1.5 0 01.62.6l.036-.717zm-1.875 3.173a1.469 1.469 0 00.7-.172 1.481 1.481 0 00.527-.464 1.255 1.255 0 00.23-.627v-.513a1.383 1.383 0 00-.518-.826 1.482 1.482 0 00-.941-.324 1.514 1.514 0 00-.743.186 1.34 1.34 0 00-.525.518 1.5 1.5 0 00-.19.755 1.451 1.451 0 00.194.734 1.47 1.47 0 00.53.534 1.418 1.418 0 00.736.199z"/><path data-name="Path 33" d="M119.842 33.052v3.457h-.416v-.734a1.642 1.642 0 01-.618.57 1.8 1.8 0 01-.9.235 1.8 1.8 0 01-.9-.226 1.649 1.649 0 01-.636-.636 1.862 1.862 0 01-.235-.942 1.885 1.885 0 01.244-.977 1.632 1.632 0 01.672-.632 2.088 2.088 0 01.968-.221 1.532 1.532 0 01.814.238 1.611 1.611 0 01.592.62l.045-.752zm-1.847 3.173a1.435 1.435 0 00.991-.362 1.3 1.3 0 00.441-.928v-.495a1.4 1.4 0 00-.513-.815 1.441 1.441 0 00-.928-.328 1.474 1.474 0 00-.726.182 1.313 1.313 0 00-.516.513 1.512 1.512 0 00-.19.764 1.451 1.451 0 00.194.734 1.479 1.479 0 00.527.534 1.375 1.375 0 00.72.201z"/><path data-name="Path 34" d="M126.114 32.946a1.7 1.7 0 01.887.238 1.731 1.731 0 01.638.659 1.883 1.883 0 01.233.932 1.827 1.827 0 01-.238.928 1.667 1.667 0 01-.658.645 1.884 1.884 0 01-.924.231 1.757 1.757 0 01-.862-.222 1.7 1.7 0 01-.632-.583v2.4h-.416v-5.149h.372l.026.77a1.808 1.808 0 01.668-.62 1.857 1.857 0 01.906-.229zm-.133 3.288a1.446 1.446 0 00.733-.194 1.473 1.473 0 00.536-.53 1.418 1.418 0 00.2-.734 1.476 1.476 0 00-.191-.742 1.4 1.4 0 00-.522-.53 1.411 1.411 0 00-.729-.2 1.448 1.448 0 00-.7.177 1.424 1.424 0 00-.522.482 1.4 1.4 0 00-.226.676v.286a1.361 1.361 0 00.226.663 1.436 1.436 0 00.513.473 1.4 1.4 0 00.682.173z"/><path data-name="Path 35" d="M133.807 32.946a1.7 1.7 0 01.887.238 1.731 1.731 0 01.638.659 1.884 1.884 0 01.233.932 1.827 1.827 0 01-.238.928 1.667 1.667 0 01-.658.645 1.884 1.884 0 01-.924.231 1.757 1.757 0 01-.862-.222 1.7 1.7 0 01-.632-.583v2.4h-.416v-5.149h.372l.026.77a1.808 1.808 0 01.668-.62 1.857 1.857 0 01.906-.229zm-.133 3.288a1.446 1.446 0 00.733-.194 1.473 1.473 0 00.536-.53 1.418 1.418 0 00.2-.734 1.476 1.476 0 00-.191-.742 1.4 1.4 0 00-.522-.53 1.411 1.411 0 00-.729-.2 1.448 1.448 0 00-.7.177 1.424 1.424 0 00-.522.482 1.4 1.4 0 00-.226.676v.286a1.361 1.361 0 00.226.663 1.436 1.436 0 00.513.473 1.4 1.4 0 00.682.173z"/><path data-name="Path 36" d="M140.34 36.58a1.876 1.876 0 01-.649-.115 1.153 1.153 0 01-.509-.354l.2-.274a1.328 1.328 0 00.423.3 1.265 1.265 0 00.513.11.989.989 0 00.566-.154.541.541 0 00.231-.482.528.528 0 00-.125-.367.791.791 0 00-.282-.2c-.107-.045-.278-.1-.514-.181a1.714 1.714 0 01-.64-.358.765.765 0 01-.226-.579.871.871 0 01.3-.686 1.105 1.105 0 01.756-.26 1.418 1.418 0 011.034.389l-.185.292a.745.745 0 00-.349-.256 1.43 1.43 0 00-.437-.089.836.836 0 00-.482.147.465.465 0 00-.217.411.474.474 0 00.194.412 2.608 2.608 0 00.593.278 2.482 2.482 0 01.742.358.718.718 0 01.256.606 1.014 1.014 0 01-.3.769 1.225 1.225 0 01-.893.283z"/><path data-name="Path 37" d="M151.758 36.58a1.876 1.876 0 01-.649-.115 1.153 1.153 0 01-.509-.354l.2-.274a1.327 1.327 0 00.423.3 1.265 1.265 0 00.513.11.989.989 0 00.566-.154.541.541 0 00.231-.482.528.528 0 00-.125-.367.791.791 0 00-.282-.2c-.107-.045-.278-.1-.514-.181a1.714 1.714 0 01-.64-.358.765.765 0 01-.226-.579.871.871 0 01.3-.686 1.105 1.105 0 01.756-.26 1.418 1.418 0 011.034.389l-.185.292a.745.745 0 00-.349-.256 1.43 1.43 0 00-.437-.089.836.836 0 00-.482.147.465.465 0 00-.217.411.474.474 0 00.194.412 2.609 2.609 0 00.593.278 2.482 2.482 0 01.742.358.718.718 0 01.256.606 1.014 1.014 0 01-.3.769 1.225 1.225 0 01-.893.283z"/><path data-name="Path 38" d="M157.335 33.051v3.459h-.416v-3.459zm-.5-1.271a.27.27 0 01.092-.208.315.315 0 01.217-.084.3.3 0 01.213.084.275.275 0 01.088.208.287.287 0 01-.088.217.3.3 0 01-.213.083.308.308 0 01-.217-.088.284.284 0 01-.092-.212z"/><path data-name="Path 39" d="M163.495 32.955a1.084 1.084 0 01.779.287 1.048 1.048 0 01.318.747v2.52h-.421v-2.4a.854.854 0 00-.221-.561.792.792 0 00-.584-.226 1.293 1.293 0 00-.649.168 1.3 1.3 0 00-.478.473 1.34 1.34 0 00-.181.694v1.857h-.416v-3.462h.363l.034.77a1.31 1.31 0 01.571-.632 1.723 1.723 0 01.885-.235z"/><path data-name="Path 40" d="M171.563 36.173a1.8 1.8 0 01-.543.3 1.9 1.9 0 01-.624.106 1.888 1.888 0 01-.941-.235 1.705 1.705 0 01-.659-.645 1.806 1.806 0 01-.238-.924 1.78 1.78 0 01.244-.923 1.746 1.746 0 01.658-.645 1.8 1.8 0 01.9-.235 1.842 1.842 0 011.211.407l-.221.283a1.529 1.529 0 00-.964-.346 1.351 1.351 0 00-.712.2 1.422 1.422 0 00-.513.53 1.465 1.465 0 00-.19.733 1.444 1.444 0 00.19.729 1.415 1.415 0 00.521.527 1.425 1.425 0 00.738.194 1.487 1.487 0 00.91-.309z"/><path data-name="Path 41" d="M176.956 36.217a1.52 1.52 0 001.007-.38l.213.3a2.1 2.1 0 01-.579.323 1.849 1.849 0 01-.65.12 1.9 1.9 0 01-.95-.238 1.7 1.7 0 01-.654-.65 1.829 1.829 0 01-.235-.924 1.773 1.773 0 01.247-.914 1.855 1.855 0 01.672-.668 1.817 1.817 0 01.928-.247 1.555 1.555 0 011.025.353 2.021 2.021 0 01.62.955l-2.953 1.139a1.4 1.4 0 00.516.6 1.412 1.412 0 00.793.231zm-.027-2.926a1.371 1.371 0 00-.715.2 1.4 1.4 0 00-.514.527 1.483 1.483 0 00-.185.738 1.318 1.318 0 00.036.326l2.545-1a1.462 1.462 0 00-.468-.571 1.166 1.166 0 00-.699-.221z"/><path data-name="Path 42" d="M188.91 30.736v5.772h-.434v-5.36h-.857v-.416z"/><path data-name="Path 43" d="M194.931 30.869a2.043 2.043 0 01.977.233 1.75 1.75 0 01.69.659 1.882 1.882 0 01.252.982 2.808 2.808 0 01-.421 1.5 5.17 5.17 0 01-1.016 1.206 17.755 17.755 0 01-1.48 1.141l-.292-.337a8.727 8.727 0 001.516-1.1 4.628 4.628 0 00.9-1.074 1.547 1.547 0 01-.539.34 2.078 2.078 0 01-.708.11 1.7 1.7 0 01-.88-.242 1.831 1.831 0 01-.654-.659 1.77 1.77 0 01-.244-.91 1.775 1.775 0 01.261-.946 1.851 1.851 0 01.694-.663 1.928 1.928 0 01.944-.24zm.018 3.28a1.516 1.516 0 001.065-.367 1.288 1.288 0 00.4-1v-.133a1.419 1.419 0 00-.217-.712 1.4 1.4 0 00-.53-.491 1.513 1.513 0 00-.72-.176 1.476 1.476 0 00-.743.19 1.446 1.446 0 00-.534.522 1.405 1.405 0 00-.2.738 1.384 1.384 0 00.2.733 1.422 1.422 0 00.534.513 1.5 1.5 0 00.745.183z"/><path data-name="Path 44" d="M202.331 30.869a2.043 2.043 0 01.977.233 1.751 1.751 0 01.69.659 1.882 1.882 0 01.252.982 2.808 2.808 0 01-.421 1.5 5.17 5.17 0 01-1.016 1.206 17.753 17.753 0 01-1.48 1.141l-.292-.337a8.727 8.727 0 001.516-1.1 4.63 4.63 0 00.9-1.074 1.547 1.547 0 01-.539.34 2.079 2.079 0 01-.708.11 1.7 1.7 0 01-.88-.242 1.831 1.831 0 01-.654-.659 1.77 1.77 0 01-.244-.91 1.775 1.775 0 01.261-.946 1.851 1.851 0 01.694-.663 1.928 1.928 0 01.944-.24zm.018 3.28a1.516 1.516 0 001.065-.367 1.288 1.288 0 00.4-1v-.133a1.419 1.419 0 00-.217-.712 1.4 1.4 0 00-.53-.491 1.513 1.513 0 00-.72-.176 1.476 1.476 0 00-.743.19 1.445 1.445 0 00-.534.522 1.405 1.405 0 00-.2.738 1.384 1.384 0 00.2.733 1.422 1.422 0 00.534.513 1.5 1.5 0 00.745.183z"/><path data-name="Path 45" d="M211.277 30.736l-2.475 5.772h-.495l2.333-5.366h-3.014v-.407z"/></g></g></g></svg>