<svg stroke-width=".501" stroke-linejoin="bevel" fill-rule="evenodd" xmlns="http://www.w3.org/2000/svg" overflow="visible" width="2832" height="1018" viewBox="0 0 2124 763.5"><g fill="none" stroke="#000" font-family="Times New Roman" font-size="16"><path d="M1131.13 670.655l172.3-328.282 1.18 364.296c.07 14.583 4.3 25.521 11.42 32.161l-143.44.257c-42.76.087-61.31-30.586-41.46-68.432zm228.92 67.816l367.92-213.942c11.82-6.897 19.06-15.404 21.66-24.288l89.59 168.993c19.99 37.76 1.52 68.502-41.19 68.587l-438.46.856c.17-.034.33-.137.48-.206zm5.19-119.118l-1.18-252.664c-.12-28.294 19.72-39.881 44.29-25.849l219.44 125.363c24.56 14.034 24.67 37.01.24 51.256l-218.29 127.335c-24.43 14.245-44.38 2.855-44.5-25.441zm362.58-158.738l-369.35-211.646a60.65 60.65 0 00-4.77-2.482l94.18-179.298c19.8-37.863 52.24-37.897 72.21-.188l208.95 394.368c-.4-.257-.81-.497-1.22-.754z" fill="#2c1a4f" fill-opacity=".165" stroke="none"/><path d="M1404.58 633.597l172.29-328.282 1.18 364.296c.07 14.583 4.3 25.521 11.42 32.161l-143.43.257c-42.76.087-61.32-30.586-41.46-68.432zm228.91 67.816l367.93-213.942c11.81-6.897 19.05-15.404 21.65-24.288l89.59 168.993c19.99 37.76 1.52 68.502-41.18 68.587l-438.46.856c.17-.034.32-.137.47-.206zm5.2-119.118l-1.19-252.664c-.11-28.294 19.73-39.881 44.29-25.849l219.44 125.363c24.57 14.034 24.67 37.01.24 51.256l-218.29 127.335c-24.42 14.245-44.37 2.855-44.49-25.441zm362.58-158.738l-369.35-211.646a62.46 62.46 0 00-4.77-2.482l94.17-179.298c19.81-37.863 52.24-37.897 72.22-.188l208.94 394.368c-.39-.257-.8-.497-1.21-.754z" stroke-linejoin="miter" stroke="#fff" stroke-width="2.25" stroke-opacity=".063" stroke-miterlimit="79.84"/><path d="M159.951 762.179l59.2-551.426 1.683 4.135.812 1.88 260.308 545.411h-2.494L220.471 219.53l-58.257 542.649h-2.263zm467.394-59.45l298.844-482.087c11.743-19.003 15.503-36.287 12.503-50.087l-.577-2.653 173.805 111.693c51.94 33.358 48.8 88.846-6.42 123.468L627.345 702.729zm7.021-7.055L1104.3 401.156c54.06-33.888 56.73-87.342 6.4-119.668l-169.596-108.99.801 9.096c-.356 12.079-4.858 25.758-13.803 40.233L634.366 695.674zM503.282 620.82l-159.63-333.309c-18.216-38.033.939-69.097 42.613-68.92l364.766 1.511c41.877.18 56.654 31.594 33.308 69.328L579.271 621.215c-23.365 37.766-57.67 37.859-75.989-.395zm74.076-.788l205.068-331.785c22.616-36.556 8.353-65.724-31.404-65.896l-364.766-1.511c-39.954-.169-58.099 29.109-40.575 65.7l159.63 333.309c17.419 36.372 49.452 36.705 72.047.183zM225.526 151.409L241.765-.179h2.263l-15.673 146.306 6.787-4.998c9.893-5.741 22.577-8.885 37.538-8.829l610.966 3.411L672.109-.179h4.165l218.832 140.576-7.774-2.369-.472-.05-614.191-3.429c-19.536-.073-34.828 5.425-44.938 14.813l-2.205 2.047z" fill="#fff" fill-opacity=".047" stroke="none"/></g></svg>